<?xml version="1.0" standalone="no"?>
<!DOCTYPE svg PUBLIC "-//W3C//DTD SVG 20010904//EN"
 "http://www.w3.org/TR/2001/REC-SVG-20010904/DTD/svg10.dtd">
<svg version="1.0" xmlns="http://www.w3.org/2000/svg"
 width="500.000000pt" height="500.000000pt" viewBox="0 0 500.000000 500.000000"
 preserveAspectRatio="xMidYMid meet">
<metadata>
Created by potrace 1.11, written by Peter Selinger 2001-2013
</metadata>
<g transform="translate(0.000000,500.000000) scale(0.100000,-0.100000)"
fill="#000000" stroke="none">
<path d="M2360 4617 c-3 -3 -32 -7 -65 -10 -500 -50 -961 -270 -1320 -633
-104 -104 -127 -132 -202 -234 -86 -117 -94 -129 -92 -136 0 -4 -3 -10 -8 -13
-25 -16 -193 -357 -193 -390 0 -6 -4 -19 -9 -29 -35 -63 -119 -426 -107 -458
3 -8 2 -14 -2 -14 -23 0 -21 -441 2 -570 3 -14 7 -43 11 -65 10 -73 64 -271
100 -371 66 -185 217 -460 320 -583 80 -96 159 -185 210 -235 93 -91 267 -229
340 -270 17 -9 53 -30 80 -47 156 -93 423 -202 547 -224 17 -3 39 -10 50 -16
11 -6 26 -8 33 -5 7 2 16 2 20 -2 4 -4 10 -7 13 -7 4 -1 23 -4 42 -8 34 -7 63
-11 185 -25 71 -9 371 -8 433 2 23 3 61 8 85 12 23 3 49 7 57 9 8 2 31 7 50
10 19 3 43 8 52 11 9 3 25 6 35 8 58 12 231 65 278 86 11 5 45 19 75 32 288
119 590 343 806 600 67 80 200 272 237 343 189 361 271 684 271 1065 -1 172
-14 292 -59 505 -15 71 -79 258 -121 355 -61 141 -210 399 -235 408 -5 2 -9 8
-9 14 0 22 -249 295 -327 358 -10 8 -41 34 -70 58 -28 23 -55 42 -61 42 -6 0
-12 4 -14 9 -12 32 -348 220 -483 270 -115 43 -245 83 -305 95 -14 2 -47 9
-75 15 -27 5 -68 12 -90 15 -23 4 -52 9 -65 12 -31 7 -414 17 -420 11z"/>
</g>
</svg>
